<?xml version="1.0" encoding="UTF-8"?>
<svg id="Layer_2" data-name="Layer 2" xmlns="http://www.w3.org/2000/svg" viewBox="0 0 727.62 156.77">
  <defs>
    <style>
      .cls-1 {
        fill: #9ee2bf;
      }
    </style>
  </defs>
  <g id="Layer_1-2" data-name="Layer 1">
    <g>
      <path class="cls-1" d="M0,47.02L19.12,27.89h20.3l-19.12,19.13,42.44,42.44V27.89h14.34v31.88h25.5V14.34H32.67L47.02,0h125.49l14.34,14.34H116.93V59.77h25.5V27.89h14.34v61.57l42.44-42.44-19.12-19.13h20.3l19.12,19.13-109.76,109.76L0,47.02Zm116.93,82.29l25.5-25.5v-29.69h-25.5v55.19Zm-39.84-25.5l25.5,25.5v-55.19h-25.5v29.69Z"/>
      <g>
        <path class="cls-1" d="M261.81,104.75h-12.28V52.03h12.28v52.72Zm24.78-21.61h-25.76v-10.32h25.76v10.32Zm-.9-31.1h12.2v52.72h-12.2V52.03Z"/>
        <path class="cls-1" d="M303.46,104.75l23.42-52.72h12.05l23.65,52.72h-12.8l-19.35-46.54h4.9l-19.36,46.54h-12.5Zm11.82-11.3l3.09-9.26h27.26l3.16,9.26h-33.51Z"/>
        <path class="cls-1" d="M368.08,104.75V52.03h12.12v52.72h-12.12Zm10.84-12.05l-.6-14.08,25.23-26.59h13.56l-22.67,24.48-6.93,7.23-8.59,8.96Zm25.23,12.05l-18.75-22.9,7.98-8.74,25.08,31.63h-14.31Z"/>
        <path class="cls-1" d="M423.81,104.75V52.03h12.28v52.72h-12.28Z"/>
        <path class="cls-1" d="M480.75,104.75V61.97h-16.87v-9.94h45.94v9.94h-16.87v42.78h-12.2Z"/>
        <path class="cls-1" d="M541.22,105.65c-4.17,0-8.01-.68-11.52-2.03-3.51-1.36-6.58-3.26-9.19-5.72-2.61-2.46-4.63-5.35-6.06-8.66-1.43-3.31-2.15-6.93-2.15-10.85s.72-7.59,2.15-10.88c1.43-3.29,3.45-6.16,6.06-8.62,2.61-2.46,5.66-4.37,9.15-5.72,3.49-1.36,7.32-2.03,11.48-2.03s8,.67,11.49,2c3.49,1.33,6.54,3.23,9.15,5.69,2.61,2.46,4.63,5.35,6.06,8.66,1.43,3.31,2.15,6.95,2.15,10.92s-.72,7.54-2.15,10.88c-1.43,3.34-3.45,6.24-6.06,8.7-2.61,2.46-5.66,4.36-9.15,5.69-3.49,1.33-7.29,2-11.41,2Zm-.08-10.32c2.36,0,4.53-.41,6.52-1.24,1.98-.83,3.73-2.01,5.23-3.54,1.51-1.53,2.67-3.31,3.5-5.35,.83-2.03,1.24-4.3,1.24-6.82s-.41-4.78-1.24-6.82c-.83-2.03-2-3.81-3.5-5.35-1.51-1.53-3.25-2.71-5.23-3.54-1.98-.83-4.15-1.24-6.52-1.24s-4.54,.41-6.55,1.24c-2.01,.83-3.75,2.01-5.23,3.54-1.48,1.53-2.64,3.31-3.47,5.35-.83,2.03-1.24,4.31-1.24,6.82s.41,4.78,1.24,6.82c.83,2.03,1.98,3.82,3.47,5.35,1.48,1.53,3.23,2.71,5.23,3.54,2.01,.83,4.19,1.24,6.55,1.24Z"/>
        <path class="cls-1" d="M604.79,105.65c-4.17,0-8.01-.68-11.52-2.03-3.52-1.36-6.58-3.26-9.19-5.72-2.61-2.46-4.63-5.35-6.06-8.66-1.43-3.31-2.15-6.93-2.15-10.85s.72-7.59,2.15-10.88c1.43-3.29,3.45-6.16,6.06-8.62,2.61-2.46,5.66-4.37,9.15-5.72,3.49-1.36,7.32-2.03,11.49-2.03s8,.67,11.49,2c3.49,1.33,6.54,3.23,9.15,5.69,2.61,2.46,4.63,5.35,6.06,8.66,1.43,3.31,2.15,6.95,2.15,10.92s-.72,7.54-2.15,10.88c-1.43,3.34-3.45,6.24-6.06,8.7-2.61,2.46-5.66,4.36-9.15,5.69-3.49,1.33-7.29,2-11.41,2Zm-.08-10.32c2.36,0,4.53-.41,6.51-1.24,1.98-.83,3.73-2.01,5.24-3.54,1.51-1.53,2.67-3.31,3.5-5.35,.83-2.03,1.24-4.3,1.24-6.82s-.41-4.78-1.24-6.82c-.83-2.03-2-3.81-3.5-5.35-1.51-1.53-3.25-2.71-5.24-3.54-1.98-.83-4.15-1.24-6.51-1.24s-4.55,.41-6.55,1.24c-2.01,.83-3.75,2.01-5.24,3.54-1.48,1.53-2.64,3.31-3.46,5.35s-1.24,4.31-1.24,6.82,.41,4.78,1.24,6.82,1.98,3.82,3.46,5.35c1.48,1.53,3.23,2.71,5.24,3.54,2.01,.83,4.19,1.24,6.55,1.24Z"/>
        <path class="cls-1" d="M642.74,104.75V52.03h12.28v42.78h26.29v9.94h-38.56Z"/>
        <path class="cls-1" d="M705.33,105.65c-4.22,0-8.27-.56-12.16-1.69-3.89-1.13-7.02-2.6-9.38-4.41l4.14-9.19c2.21,1.61,4.87,2.93,7.98,3.95,3.11,1.03,6.25,1.54,9.41,1.54,2.41,0,4.36-.25,5.84-.75,1.48-.5,2.57-1.17,3.28-2,.7-.83,1.05-1.79,1.05-2.9,0-1.41-.55-2.52-1.66-3.35s-2.57-1.51-4.41-2.03c-1.83-.53-3.83-1.03-5.99-1.51-2.16-.48-4.33-1.05-6.52-1.73-2.18-.68-4.19-1.58-6.03-2.71-1.83-1.13-3.29-2.61-4.37-4.44-1.08-1.83-1.62-4.13-1.62-6.89,0-3.01,.8-5.76,2.41-8.25,1.61-2.49,4.05-4.47,7.34-5.95,3.29-1.48,7.42-2.22,12.39-2.22,3.31,0,6.59,.4,9.83,1.21,3.24,.8,6.06,1.96,8.47,3.46l-3.84,9.19c-2.36-1.36-4.79-2.37-7.31-3.05-2.51-.68-4.92-1.02-7.23-1.02s-4.34,.26-5.8,.79c-1.46,.53-2.52,1.24-3.2,2.15-.68,.9-1.02,1.91-1.02,3.01,0,1.41,.55,2.54,1.66,3.39,1.1,.85,2.56,1.52,4.37,2,1.81,.48,3.81,.95,6.02,1.43,2.21,.48,4.39,1.07,6.55,1.77,2.16,.7,4.14,1.59,5.95,2.67,1.81,1.08,3.28,2.54,4.41,4.37,1.13,1.83,1.69,4.1,1.69,6.82,0,2.96-.82,5.67-2.45,8.13-1.63,2.46-4.11,4.44-7.42,5.95-3.31,1.51-7.46,2.26-12.43,2.26Z"/>
      </g>
    </g>
  </g>
</svg>